# xmcd CD database file
#
# Track frame offsets:
#	150
#	19030
#	37052
#	55862
#	80857
#	123932
#	152845
#	192075
#	217620
#
# Disc length: 3132 seconds
#
# Revision: 0
# Processed by: cddbd v1.4PL0 Copyright (c) Steve Scherf et al.
# Submitted via: CDex 1.40Release
#
DISCID=700c3a09
DTITLE=Christian Willisohn - Live at Marians - Disc 2
DYEAR=2000
DGENRE=Blues
TTITLE0=Josephine
TTITLE1=Somebody Bigger
TTITLE2=Rain
TTITLE3=Lonely Avenue
TTITLE4=Tin Pan Alley
TTITLE5=Who Do You Love
TTITLE6=After Hours
TTITLE7=Alright
TTITLE8=Hold On, I'm Waiting For You
EXTD=YEAR: 2000 ID3G: 0
EXTT0=
EXTT1=
EXTT2=
EXTT3=
EXTT4=
EXTT5=
EXTT6=
EXTT7=
EXTT8=
PLAYORDER=
